# Blender 3.3.0
# www.blender.org
mtllib gb3.mtl
o Cube
v -0.041227 -0.240541 0.147354
v -0.041227 0.209715 0.147354
v -0.041227 -0.240541 -0.155646
v -0.041227 0.209715 -0.155646
v 0.039224 -0.240541 0.147354
v 0.039224 0.209715 0.147354
v 0.039224 -0.240541 -0.155646
v 0.039224 0.209715 -0.155646
v -0.041227 -0.002032 0.147354
v -0.041227 0.181969 0.147354
v -0.041227 0.181969 -0.155646
v -0.041227 -0.002032 -0.155646
v 0.039224 0.162423 -0.155646
v 0.039224 0.023932 -0.155646
v 0.039224 0.162423 0.147354
v 0.039224 0.023932 0.147354
v -0.041227 -0.240541 -0.129345
v -0.041227 -0.240541 0.119293
v -0.041227 0.209715 0.119293
v -0.041227 0.209715 -0.129345
v 0.039224 -0.240541 0.046354
v 0.039224 -0.240541 -0.054646
v 0.039224 0.209715 -0.054646
v 0.039224 0.209715 0.046354
v -0.041227 -0.002032 0.119293
v -0.041227 -0.002032 -0.129345
v -0.041227 0.181969 0.119293
v -0.041227 0.181969 -0.129345
v -0.041227 0.018918 0.079229
v -0.041227 0.018918 -0.089281
v -0.041227 0.161018 0.079229
v -0.041227 0.161018 -0.089281
v -0.040400 0.018918 0.079229
v -0.040400 0.018918 -0.089281
v -0.040400 0.161018 0.079229
v -0.040400 0.161018 -0.089281
v -0.043915 -0.088334 0.079556
v -0.043915 -0.084916 0.079893
v -0.043915 -0.081629 0.080890
v -0.043915 -0.078599 0.082509
v -0.043915 -0.075944 0.084689
v -0.043915 -0.073765 0.087344
v -0.043915 -0.072145 0.090373
v -0.043915 -0.071148 0.093661
v -0.043915 -0.070812 0.097079
v -0.043915 -0.071148 0.100498
v -0.043915 -0.072145 0.103785
v -0.043915 -0.073765 0.106814
v -0.043915 -0.075944 0.109470
v -0.043915 -0.078599 0.111649
v -0.043915 -0.081629 0.113268
v -0.043915 -0.084916 0.114265
v -0.043915 -0.088334 0.114602
v -0.043915 -0.091753 0.114265
v -0.043915 -0.095040 0.113268
v -0.043915 -0.098070 0.111649
v -0.043915 -0.100725 0.109470
v -0.043915 -0.102904 0.106814
v -0.043915 -0.104523 0.103785
v -0.043915 -0.105521 0.100498
v -0.043915 -0.105857 0.097079
v -0.043915 -0.105521 0.093661
v -0.043915 -0.104523 0.090373
v -0.043915 -0.102904 0.087344
v -0.043915 -0.100725 0.084689
v -0.043915 -0.098070 0.082509
v -0.043915 -0.095040 0.080890
v -0.043915 -0.091753 0.079893
v -0.043915 -0.106629 0.024421
v -0.043915 -0.103210 0.024758
v -0.043915 -0.099923 0.025755
v -0.043915 -0.096894 0.027374
v -0.043915 -0.094238 0.029553
v -0.043915 -0.092059 0.032209
v -0.043915 -0.090440 0.035238
v -0.043915 -0.089443 0.038525
v -0.043915 -0.089106 0.041944
v -0.043915 -0.089443 0.045362
v -0.043915 -0.090440 0.048650
v -0.043915 -0.092059 0.051679
v -0.043915 -0.094238 0.054334
v -0.043915 -0.096894 0.056514
v -0.043915 -0.099923 0.058133
v -0.043915 -0.103210 0.059130
v -0.043915 -0.106629 0.059467
v -0.043915 -0.110048 0.059130
v -0.043915 -0.113335 0.058133
v -0.043915 -0.116364 0.056514
v -0.043915 -0.119020 0.054334
v -0.043915 -0.121199 0.051679
v -0.043915 -0.122818 0.048650
v -0.043915 -0.123815 0.045362
v -0.043915 -0.124152 0.041944
v -0.043915 -0.123815 0.038525
v -0.043915 -0.122818 0.035238
v -0.043915 -0.121199 0.032209
v -0.043915 -0.119020 0.029553
v -0.043915 -0.116364 0.027374
v -0.043915 -0.113335 0.025755
v -0.043915 -0.110048 0.024758
v -0.047370 -0.176277 -0.009348
v -0.047370 -0.170095 -0.009348
v -0.047370 -0.176277 -0.032443
v -0.047370 -0.170095 -0.032443
v -0.032595 -0.176277 -0.009348
v -0.032595 -0.170095 -0.009348
v -0.032595 -0.176277 -0.032443
v -0.032595 -0.170095 -0.032443
v -0.047370 -0.176277 0.031519
v -0.047370 -0.170095 0.031519
v -0.047370 -0.176277 0.008425
v -0.047370 -0.170095 0.008425
v -0.032595 -0.176277 0.031519
v -0.032595 -0.170095 0.031519
v -0.032595 -0.176277 0.008425
v -0.032595 -0.170095 0.008425
v -0.049378 -0.129195 -0.059571
v -0.049378 -0.062011 -0.059571
v -0.049378 -0.129195 -0.080397
v -0.049378 -0.062011 -0.080397
v -0.037609 -0.129195 -0.059571
v -0.037609 -0.062011 -0.059571
v -0.037609 -0.129195 -0.080397
v -0.037609 -0.062011 -0.080397
v -0.049346 -0.106016 -0.103576
v -0.049346 -0.106016 -0.036392
v -0.049346 -0.085190 -0.103576
v -0.049346 -0.085190 -0.036392
v -0.037577 -0.106016 -0.103576
v -0.037577 -0.106016 -0.036392
v -0.037577 -0.085190 -0.103576
v -0.037577 -0.085190 -0.036392
v -0.041590 0.118139 -0.114671
v -0.041590 0.122576 -0.114671
v -0.041590 0.118139 -0.119108
v -0.041590 0.122576 -0.119108
vn -1.0000 -0.0000 -0.0000
vn -0.0000 -0.0000 -1.0000
vn -0.0000 -0.0000 1.0000
vn -0.0000 -1.0000 -0.0000
vn -0.0000 1.0000 -0.0000
vt 0.446063 0.202914
vt 0.439595 0.167858
vt 0.475211 0.197727
vt 0.469581 0.161920
vt 0.387086 0.301428
vt 0.373619 0.114731
vt 0.578703 0.282287
vt 0.518706 0.077249
vt 0.440859 0.185540
vt 0.439148 0.169878
vt 0.470709 0.164020
vt 0.474624 0.180131
vt 0.530996 0.085079
vt 0.578703 0.124872
vt 0.366083 0.124819
vt 0.338946 0.171765
vt 0.472451 0.199353
vt 0.449904 0.203618
vt 0.442042 0.166886
vt 0.466774 0.162186
vt 0.450925 0.327514
vt 0.519516 0.335935
vt 0.461588 0.052128
vt 0.412215 0.077492
vt 0.444187 0.184928
vt 0.103663 0.952850
vt 0.471097 0.180622
vt 0.199553 0.937506
vt 0.442467 0.169259
vt 0.097536 0.897014
vt 0.467324 0.164522
vt 0.186109 0.880132
vt 0.118795 0.944901
vt 0.182717 0.934197
vt 0.112198 0.899815
vt 0.172388 0.887992
vt 0.450592 0.179195
vt 0.462225 0.177837
vt 0.450260 0.171797
vt 0.461476 0.170211
vt 0.499639 0.893931
vt 0.499676 0.893968
vt 0.499723 0.893998
vt 0.499779 0.894020
vt 0.499842 0.894032
vt 0.499910 0.894034
vt 0.499981 0.894024
vt 0.500051 0.893999
vt 0.500117 0.893962
vt 0.500174 0.893912
vt 0.500220 0.893853
vt 0.500253 0.893788
vt 0.500272 0.893722
vt 0.500278 0.893658
vt 0.500272 0.893598
vt 0.500255 0.893546
vt 0.500227 0.893501
vt 0.500189 0.893464
vt 0.500142 0.893434
vt 0.500087 0.893413
vt 0.500024 0.893400
vt 0.499955 0.893398
vt 0.499884 0.893408
vt 0.499814 0.893433
vt 0.499749 0.893471
vt 0.499691 0.893520
vt 0.499646 0.893579
vt 0.499613 0.893644
vt 0.499593 0.893710
vt 0.499587 0.893774
vt 0.499593 0.893833
vt 0.499611 0.893886
vt 0.499639 0.864671
vt 0.499676 0.864708
vt 0.499723 0.864738
vt 0.499779 0.864759
vt 0.499842 0.864772
vt 0.499910 0.864774
vt 0.499981 0.864763
vt 0.500051 0.864739
vt 0.500117 0.864701
vt 0.500174 0.864652
vt 0.500220 0.864593
vt 0.500253 0.864528
vt 0.500272 0.864462
vt 0.500278 0.864398
vt 0.500272 0.864338
vt 0.500255 0.864286
vt 0.500227 0.864241
vt 0.500189 0.864204
vt 0.500142 0.864174
vt 0.500087 0.864152
vt 0.500024 0.864140
vt 0.499955 0.864138
vt 0.499884 0.864148
vt 0.499814 0.864173
vt 0.499749 0.864210
vt 0.499691 0.864260
vt 0.499646 0.864319
vt 0.499613 0.864383
vt 0.499593 0.864450
vt 0.499587 0.864514
vt 0.499593 0.864573
vt 0.499611 0.864626
vt 0.485177 0.916145
vt 0.485402 0.916023
vt 0.496418 0.932075
vt 0.496817 0.931292
vt 0.489974 0.935325
vt 0.486767 0.936974
vt 0.496817 0.908399
vt 0.493050 0.909120
vt 0.485177 0.944826
vt 0.485402 0.944704
vt 0.496418 0.960756
vt 0.496817 0.959973
vt 0.489974 0.964007
vt 0.486767 0.965655
vt 0.496817 0.937080
vt 0.493050 0.937801
vt 0.491491 0.740783
vt 0.488575 0.781711
vt 0.491408 0.743009
vt 0.489771 0.769010
vt 0.507240 0.704908
vt 0.507240 0.760771
vt 0.485177 0.727276
vt 0.487097 0.760749
vt 0.496955 0.811204
vt 0.499495 0.812520
vt 0.497577 0.812917
vt 0.499602 0.815574
vt 0.485177 0.849773
vt 0.487709 0.782713
vt 0.509530 0.846645
vt 0.509530 0.781817
vt 0.467941 0.573040
vt 0.467941 0.515111
vt 0.547374 0.573040
vt 0.547374 0.515109
s 0
f 28/31/1 20/20/1 4/4/1 11/11/1
f 11/11/2 4/4/2 8/8/2 13/13/2
f 15/15/3 6/6/3 2/2/3 10/10/3
f 18/18/4 21/21/4 5/5/4 1/1/4
f 24/24/5 19/19/5 2/2/5 6/6/5
f 5/5/3 16/16/3 9/9/3 1/1/3
f 16/16/3 15/15/3 10/10/3 9/9/3
f 3/3/2 12/12/2 14/14/2 7/7/2
f 12/12/2 11/11/2 13/13/2 14/14/2
f 17/17/1 26/27/1 12/12/1 3/3/1
f 26/27/1 28/31/1 11/11/1 12/12/1
f 9/9/1 10/10/1 27/29/1 25/25/1
f 27/30/1 28/32/1 32/36/1 31/35/1
f 1/1/1 9/9/1 25/25/1 18/18/1
f 18/18/1 25/25/1 26/27/1 17/17/1
f 8/8/5 4/4/5 20/20/5 23/23/5
f 23/23/5 20/20/5 19/19/5 24/24/5
f 3/3/4 7/7/4 22/22/4 17/17/4
f 17/17/4 22/22/4 21/21/4 18/18/4
f 10/10/1 2/2/1 19/19/1 27/29/1
f 27/29/1 19/19/1 20/20/1 28/31/1
f 26/28/1 25/26/1 29/33/1 30/34/1
f 25/26/1 27/30/1 31/35/1 29/33/1
f 28/32/1 26/28/1 30/34/1 32/36/1
f 33/37/1 35/39/1 36/40/1 34/38/1
f 38/42/1 37/41/1 68/72/1 67/71/1 66/70/1 65/69/1 64/68/1 63/67/1 62/66/1 61/65/1 60/64/1 59/63/1 58/62/1 57/61/1 56/60/1 55/59/1 54/58/1 53/57/1 52/56/1 51/55/1 50/54/1 49/53/1 48/52/1 47/51/1 46/50/1 45/49/1 44/48/1 43/47/1 42/46/1 41/45/1 40/44/1 39/43/1
f 70/74/1 69/73/1 100/104/1 99/103/1 98/102/1 97/101/1 96/100/1 95/99/1 94/98/1 93/97/1 92/96/1 91/95/1 90/94/1 89/93/1 88/92/1 87/91/1 86/90/1 85/89/1 84/88/1 83/87/1 82/86/1 81/85/1 80/84/1 79/83/1 78/82/1 77/81/1 76/80/1 75/79/1 74/78/1 73/77/1 72/76/1 71/75/1
f 101/105/1 102/106/1 104/108/1 103/107/1
f 103/107/2 104/108/2 108/112/2 107/111/2
f 109/113/1 110/114/1 112/116/1 111/115/1
f 105/109/3 106/110/3 102/106/3 101/105/3
f 103/107/4 107/111/4 105/109/4 101/105/4
f 108/112/5 104/108/5 102/106/5 106/110/5
f 111/115/2 112/116/2 116/120/2 115/119/2
f 113/117/3 114/118/3 110/114/3 109/113/3
f 111/115/4 115/119/4 113/117/4 109/113/4
f 116/120/5 112/116/5 110/114/5 114/118/5
f 117/121/1 118/122/1 120/124/1 119/123/1
f 119/123/2 120/124/2 124/128/2 123/127/2
f 121/125/3 122/126/3 118/122/3 117/121/3
f 119/123/4 123/127/4 121/125/4 117/121/4
f 124/128/5 120/124/5 118/122/5 122/126/5
f 125/129/1 126/130/1 128/132/1 127/131/1
f 127/131/5 128/132/5 132/136/5 131/135/5
f 129/133/4 130/134/4 126/130/4 125/129/4
f 127/131/2 131/135/2 129/133/2 125/129/2
f 132/136/3 128/132/3 126/130/3 130/134/3
f 133/137/1 134/138/1 136/140/1 135/139/1
