# Blender 3.3.0
# www.blender.org
mtllib car.mtl
o Plane
v -2.566317 0.000000 2.121531
v 1.000000 0.000000 2.121531
v -2.566317 0.000000 0.000000
v 1.000000 0.000000 0.000000
v -0.855401 -0.018087 -1.882567
v -0.855401 1.759637 -1.882567
v -0.410792 -0.018087 -2.071738
v -0.410792 1.894504 -2.071738
v -0.855401 -0.018087 -0.424146
v -0.855401 1.759637 -0.424146
v -0.410792 -0.018087 -0.162864
v -0.410792 1.894504 -0.162864
v -2.676510 1.701158 0.000000
v -2.394761 -0.298842 0.000000
v -2.676510 1.701158 -2.163228
v -2.394761 -0.034449 -2.141901
v -2.579574 0.237172 0.000000
v -1.598057 0.237172 0.000000
v -2.579574 0.237172 -2.139435
v -1.598057 0.237172 -2.139435
v -0.957783 -0.037772 -2.099819
v 1.120325 -0.037772 -2.121146
v -1.642914 2.026353 -2.121146
v 1.120325 2.026353 -2.121146
v -0.957783 0.926470 -2.121146
v 1.120325 0.926470 -2.121146
v 1.120325 1.426470 -2.121146
v -0.983981 1.275327 -2.121146
v 1.120325 1.676470 -2.121146
v -1.300289 1.525327 -2.121146
v -2.799879 2.026353 -2.121146
v -2.077839 1.525327 -2.121146
v -2.779087 0.905553 -2.157534
v -2.381851 0.655553 -2.157534
v -2.779087 1.465953 -2.121146
v -2.362317 1.233893 -2.121146
v -1.642914 2.350464 -1.735630
v 1.120325 2.350464 -1.735630
v -2.795685 2.350464 -1.735630
v -1.642914 2.350464 0.002402
v 1.120325 2.350464 0.002402
v -2.795685 2.350464 0.002402
v -3.785163 1.789258 -2.121146
v -3.764372 0.905553 -2.157534
v -3.524818 0.655553 -2.157534
v -3.764372 1.465953 -2.121146
v -3.780969 2.113368 -1.735630
v -3.780969 2.113368 0.002402
v 0.294112 -0.018087 -0.424146
v 0.007917 -0.018087 -0.162864
v -0.855401 0.299369 -1.882567
v -0.410792 0.299369 -2.071738
v -0.855401 0.299369 -0.424146
v -0.410792 0.299369 -0.162864
v 0.294112 0.299369 -1.882567
v 0.007917 0.299369 -2.071738
v 0.294112 0.299369 -0.424146
v 0.007917 0.299369 -0.162864
v 1.120325 0.926470 0.000000
v 1.120325 -0.037772 0.000000
v -0.957783 0.797558 -2.121146
v 1.120325 0.736654 -2.121146
v -2.532973 0.682256 0.000000
v -2.532973 0.772332 -2.163228
v 1.120325 1.426470 0.000000
v 1.120325 0.736654 0.000000
v -2.566317 0.000000 -2.121531
v 1.000000 0.000000 -2.121531
v -0.855401 -0.018087 1.882567
v -0.855401 1.759637 1.882567
v -0.410792 -0.018087 2.071738
v -0.410792 1.894504 2.071738
v -0.855401 -0.018087 0.424146
v -0.855401 1.759637 0.424146
v -0.410792 -0.018087 0.162864
v -0.410792 1.894504 0.162864
v -2.676510 1.701158 2.163228
v -2.394761 -0.034449 2.141901
v -2.579574 0.237172 2.139435
v -1.598057 0.237172 2.139435
v -0.957783 -0.037772 2.099819
v 1.120325 -0.037772 2.121146
v -1.642914 2.026353 2.121146
v 1.120325 2.026353 2.121146
v -0.957783 0.926470 2.121146
v 1.120325 0.926470 2.121146
v 1.120325 1.426470 2.121146
v -0.983981 1.275327 2.121146
v 1.120325 1.676470 2.121146
v -1.300289 1.525327 2.121146
v -2.799879 2.026353 2.121146
v -2.077839 1.525327 2.121146
v -2.779087 0.905553 2.157534
v -2.381851 0.655553 2.157534
v -2.779087 1.465953 2.121146
v -2.362317 1.233893 2.121146
v -1.642914 2.350464 1.735630
v 1.120325 2.350464 1.735630
v -2.795685 2.350464 1.735630
v -1.642914 2.350464 -0.002402
v 1.120325 2.350464 -0.002402
v -2.795685 2.350464 -0.002402
v -3.785163 1.789258 2.121146
v -3.764372 0.905553 2.157534
v -3.524818 0.655553 2.157534
v -3.764372 1.465953 2.121146
v -3.780969 2.113368 1.735630
v -3.780969 2.113368 -0.002402
v 0.294112 -0.018087 0.424146
v 0.007917 -0.018087 0.162864
v -0.855401 0.299369 1.882567
v -0.410792 0.299369 2.071738
v -0.855401 0.299369 0.424146
v -0.410792 0.299369 0.162864
v 0.294112 0.299369 1.882567
v 0.007917 0.299369 2.071738
v 0.294112 0.299369 0.424146
v 0.007917 0.299369 0.162864
v -0.957783 0.797558 2.121146
v 1.120325 0.736654 2.121146
v -2.532973 0.772332 2.163228
vn -0.0000 1.0000 -0.0000
vn -1.0000 -0.0000 -0.0000
vn -0.3915 -0.0000 -0.9202
vn -0.2903 0.9569 -0.0000
vn -0.0000 -0.0000 1.0000
vn -0.5067 -0.0000 0.8621
vn 0.9882 0.1529 0.0126
vn -0.0374 -0.0631 0.9973
vn -0.0000 -0.7654 0.6435
vn -0.0000 -1.0000 -0.0000
vn 0.2340 -0.9722 -0.0000
vn -0.0000 -0.0648 0.9979
vn 0.1814 -0.7537 0.6317
vn -0.0000 -0.0000 -1.0000
vn -0.6742 -0.0000 -0.7385
vn 0.0053 0.0132 0.9999
vn 0.9893 0.1458 0.0030
vn -0.0281 0.0236 0.9993
vn -0.3915 -0.0000 0.9202
vn -0.5067 -0.0000 -0.8621
vn 0.9882 0.1529 -0.0126
vn -0.0374 -0.0631 -0.9973
vn -0.0000 -0.7654 -0.6435
vn -0.0000 -0.0648 -0.9979
vn 0.1814 -0.7537 -0.6317
vn -0.6742 -0.0000 0.7385
vn 0.0053 0.0132 -0.9999
vn 0.9893 0.1458 -0.0030
vn -0.0281 0.0236 -0.9993
vt 0.335851 0.736275
vt 0.331513 0.735888
vt 0.335851 0.732285
vt 0.331279 0.732474
vt -0.446371 1.538437
vt -0.073558 0.373830
vt 1.469016 1.483832
vt 1.131841 0.360801
vt 0.456968 1.147885
vt -0.320560 0.876443
vt 1.290963 0.884754
vt 0.733833 1.379179
vt -0.445761 -0.395724
vt -0.276638 1.000757
vt 1.478889 -0.382237
vt 0.443056 -0.238946
vt 1.338105 0.986369
vt -0.405732 0.292898
vt 0.027025 0.841303
vt 0.745587 -0.391289
vt 1.460823 0.301290
vt 0.639858 0.703776
vt 0.641201 0.703776
vt 0.639858 0.705927
vt 0.641201 0.705927
vt 0.492171 0.363246
vt 0.789265 0.693449
vt 0.790247 0.693449
vt 0.789265 0.696650
vt 0.790247 0.696650
vt 0.264873 0.500780
vt 0.497033 0.363229
vt 0.265610 0.500772
vt 0.264635 0.501470
vt 0.265614 0.501458
vt 0.264873 0.500883
vt 0.265611 0.500875
vt 0.265612 0.501140
vt 0.264802 0.501149
vt 0.265613 0.501273
vt 0.264717 0.501283
vt 0.264234 0.501490
vt 0.264478 0.501291
vt 0.264209 0.500910
vt 0.264309 0.500763
vt 0.264226 0.501203
vt 0.264353 0.501118
vt 0.264638 0.501736
vt 0.265615 0.501726
vt 0.264243 0.501744
vt 0.264632 0.502651
vt 0.265615 0.502651
vt 0.264223 0.502640
vt 0.263885 0.501426
vt 0.263861 0.500958
vt 0.263938 0.500814
vt 0.263880 0.501255
vt 0.263893 0.501696
vt 0.263864 0.502616
vt 0.863886 0.606756
vt 0.939301 0.830605
vt 0.343850 1.019219
vt 0.161761 -0.463410
vt -0.426344 0.508056
vt 0.297757 0.185901
vt -0.111680 0.218268
vt 0.036514 1.185598
vt 0.357682 0.745651
vt 0.040223 0.214024
vt 1.030931 -0.315788
vt 1.359475 0.811364
vt 0.948241 0.296379
vt 1.188616 0.439113
vt 0.905682 1.333219
vt 0.637932 -0.030277
vt 0.828076 0.799610
vt 0.951214 0.194020
vt 0.203162 0.404441
vt 0.265611 0.500875
vt 0.265610 0.500772
vt 0.264873 0.500863
vt 0.497033 0.367145
vt 0.265611 0.500855
vt 0.640542 0.703776
vt 0.640542 0.705927
vt 0.491704 0.366870
vt 0.265612 0.501140
vt 0.265611 0.500855
vt 0.335851 0.736275
vt 0.331513 0.735888
vt -0.446371 1.538437
vt -0.073558 0.373830
vt 1.469016 1.483832
vt 1.131841 0.360801
vt 0.456968 1.147885
vt -0.320560 0.876443
vt 1.290963 0.884754
vt 0.733833 1.379179
vt -0.445761 -0.395724
vt -0.276638 1.000757
vt 1.478889 -0.382237
vt 0.443056 -0.238946
vt 1.338105 0.986369
vt -0.405732 0.292898
vt 0.027025 0.841303
vt 0.745587 -0.391289
vt 1.460823 0.301290
vt 0.639858 0.705927
vt 0.641201 0.705927
vt 0.492171 0.363246
vt 0.789265 0.696650
vt 0.790247 0.696650
vt 0.264873 0.500780
vt 0.497033 0.363229
vt 0.265610 0.500772
vt 0.264635 0.501470
vt 0.265614 0.501458
vt 0.264873 0.500883
vt 0.265611 0.500875
vt 0.265612 0.501140
vt 0.264802 0.501149
vt 0.265613 0.501273
vt 0.264717 0.501283
vt 0.264234 0.501490
vt 0.264478 0.501291
vt 0.264209 0.500910
vt 0.264309 0.500763
vt 0.264226 0.501203
vt 0.264353 0.501118
vt 0.264638 0.501736
vt 0.265615 0.501726
vt 0.264243 0.501744
vt 0.264632 0.502651
vt 0.265615 0.502651
vt 0.264223 0.502640
vt 0.263885 0.501426
vt 0.263861 0.500958
vt 0.263938 0.500814
vt 0.263880 0.501255
vt 0.263893 0.501696
vt 0.263864 0.502616
vt 0.863886 0.606756
vt 0.939301 0.830605
vt 0.343850 1.019219
vt 0.161761 -0.463410
vt -0.426344 0.508056
vt 0.297757 0.185901
vt -0.111680 0.218268
vt 0.036514 1.185598
vt 0.357682 0.745651
vt 0.040223 0.214024
vt 1.030931 -0.315788
vt 1.359475 0.811364
vt 0.948241 0.296379
vt 1.188616 0.439113
vt 0.905682 1.333219
vt 0.637932 -0.030277
vt 0.828076 0.799610
vt 0.951214 0.194020
vt 0.203162 0.404441
vt 0.264873 0.500863
vt 0.497033 0.367145
vt 0.265611 0.500855
vt 0.640542 0.705927
vt 0.491704 0.366870
s 0
usemtl Material.003
f 1/1/1 2/2/1 4/4/1 3/3/1
f 9/13/2 10/15/2 6/7/2 5/5/2
f 5/6/3 6/8/3 8/11/3 7/10/3
f 8/12/4 6/9/4 10/16/4 12/20/4
f 17/27/1 18/28/1 20/30/1 19/29/1
f 30/41/5 29/40/5 24/35/5 23/34/5
f 10/17/6 9/14/6 11/18/6 12/21/6
f 63/84/7 14/23/7 16/25/7 64/85/7
f 61/81/5 62/83/5 26/37/5 25/36/5
f 25/36/5 26/37/5 27/38/5 28/39/5
f 28/39/5 27/38/5 29/40/5 30/41/5
f 30/41/5 23/34/5 31/42/5 32/43/5
f 36/47/8 35/46/8 33/44/8 34/45/8
f 32/43/5 31/42/5 35/46/5 36/47/5
f 31/42/9 23/34/9 37/48/9 39/50/9
f 23/34/9 24/35/9 38/49/9 37/48/9
f 39/50/10 37/48/10 40/51/10 42/53/10
f 37/48/10 38/49/10 41/52/10 40/51/10
f 39/50/11 42/53/11 48/59/11 47/58/11
f 35/46/5 31/42/5 43/54/5 46/57/5
f 33/44/12 35/46/12 46/57/12 44/55/12
f 34/45/5 33/44/5 44/55/5 45/56/5
f 31/42/13 39/50/13 47/58/13 43/54/13
f 54/68/10 53/66/10 57/73/10 58/76/10
f 53/67/10 51/63/10 55/70/10 57/74/10
f 51/64/10 52/65/10 56/72/10 55/71/10
f 50/61/14 11/19/14 54/69/14 58/77/14
f 49/60/15 50/62/15 58/78/15 57/75/15
f 62/83/2 22/33/2 60/80/2 66/88/2
f 21/31/16 22/33/16 62/83/16 61/81/16
f 13/22/17 63/84/17 64/85/17 15/24/17
f 61/82/18 64/86/18 16/26/18 21/32/18
f 27/38/2 26/37/2 59/79/2 65/87/2
f 26/37/2 62/83/2 66/88/2 59/79/2
f 67/89/1 3/3/1 4/4/1 68/90/1
f 73/99/2 69/91/2 70/93/2 74/101/2
f 69/92/19 71/96/19 72/97/19 70/94/19
f 72/98/4 76/106/4 74/102/4 70/95/4
f 17/27/1 79/111/1 80/112/1 18/28/1
f 90/123/14 83/116/14 84/117/14 89/122/14
f 74/103/20 76/107/20 75/104/20 73/100/20
f 63/84/21 121/164/21 78/109/21 14/23/21
f 119/161/14 85/118/14 86/119/14 120/163/14
f 85/118/14 88/121/14 87/120/14 86/119/14
f 88/121/14 90/123/14 89/122/14 87/120/14
f 90/123/14 92/125/14 91/124/14 83/116/14
f 96/129/22 94/127/22 93/126/22 95/128/22
f 92/125/14 96/129/14 95/128/14 91/124/14
f 91/124/23 99/132/23 97/130/23 83/116/23
f 83/116/23 97/130/23 98/131/23 84/117/23
f 99/132/10 102/135/10 100/133/10 97/130/10
f 97/130/10 100/133/10 101/134/10 98/131/10
f 99/132/11 107/140/11 108/141/11 102/135/11
f 95/128/14 106/139/14 103/136/14 91/124/14
f 93/126/24 104/137/24 106/139/24 95/128/24
f 94/127/14 105/138/14 104/137/14 93/126/14
f 91/124/25 103/136/25 107/140/25 99/132/25
f 114/150/10 118/158/10 117/155/10 113/148/10
f 113/149/10 117/156/10 115/152/10 111/145/10
f 111/146/10 115/153/10 116/154/10 112/147/10
f 110/143/5 118/159/5 114/151/5 75/105/5
f 109/142/26 117/157/26 118/160/26 110/144/26
f 120/163/2 66/88/2 60/80/2 82/115/2
f 81/113/27 119/161/27 120/163/27 82/115/27
f 13/22/28 77/108/28 121/164/28 63/84/28
f 119/162/29 81/114/29 78/110/29 121/165/29
f 87/120/2 65/87/2 59/79/2 86/119/2
f 86/119/2 59/79/2 66/88/2 120/163/2
